<svg width="20" height="19" viewBox="0 0 20 19" fill="none" xmlns="http://www.w3.org/2000/svg">
<path d="M19.3112 2.39289C19.4626 2.54482 19.5477 2.75061 19.5477 2.96514C19.5477 3.17967 19.4626 3.38545 19.3112 3.53738L17.6204 5.22979L14.3782 1.98762L16.069 0.295208C16.221 0.143255 16.4271 0.0578918 16.6421 0.0578918C16.857 0.0578918 17.0631 0.143255 17.2151 0.295208L19.3112 2.39127V2.39289ZM16.4743 6.37428L13.2321 3.13211L2.18766 14.1782C2.09844 14.2674 2.03128 14.3762 1.99151 14.4959L0.686537 18.4092C0.662871 18.4806 0.659511 18.5571 0.676833 18.6302C0.694154 18.7034 0.731476 18.7702 0.784626 18.8234C0.837775 18.8765 0.904658 18.9139 0.9778 18.9312C1.05094 18.9485 1.12746 18.9451 1.1988 18.9215L5.1121 17.6165C5.23168 17.5772 5.34046 17.5106 5.42983 17.422L16.4743 6.37428Z" fill="white"/>
</svg>
